<svg width="138" height="137" viewBox="0 0 138 137" fill="none" xmlns="http://www.w3.org/2000/svg">
<circle cx="69" cy="68.5" r="61.5" fill="#e5e5e5" fill-opacity="0.12"/>
<circle cx="69" cy="68.5" r="50.5" fill="#e5e5e5" fill-opacity="0.12"/>
<circle cx="69" cy="68.5" r="23.5" fill="#e5e5e5" fill-opacity="0.12"/>
<circle cx="69" cy="68.5" r="38.5" fill="#e5e5e5" fill-opacity="0.12"/>
<path fill-rule="evenodd" clip-rule="evenodd" d="M49.4794 27C25.36 27 5.7224 46.1888 5 70.1331C5.14258 75.7809 6.02255 81.2454 7.54727 86.4341C15.2866 112.771 39.6375 132 68.4794 132C95.2477 132 118.147 115.437 127.489 92H102.5L68.9794 91.9529C57 91.9529 46.9794 80.9748 46.9794 68.5C46.9794 55.5213 57.5007 45 70.4794 45C80.7453 45 89.4737 51.5827 92.674 60.7574C87.8683 41.3705 70.3521 27 49.4794 27Z" stroke="#e5e5e5" stroke-width="10"/>
<circle cx="69" cy="68.5" r="63.5" stroke="#e5e5e5" stroke-width="10"/>
<circle cx="71" cy="68.5" r="12.5" fill="#e5e5e5" fill-opacity="0.12"/>
</svg>
